0
SECTION
2
HEADER
9
$ACADVER
1
AC1015
9
$INSBASE
10
0
20
0
30
0
9
$EXTMIN
10
0.7464226494330399
20
-0.7812520269104877
30
-0.5587918466650765
9
$EXTMAX
10
5.144000353184228
20
2.497269899555903
30
-0.5587918466650765
9
$INSUNITS
70
6
9
$CLAYER
8
0
9
$HANDSEED
5
FFFF
0
ENDSEC
0
SECTION
2
CLASSES
0
CLASS
1
ACDBDICTIONARYWDFLT
2
AcDbDictionaryWithDefault
3
ObjectDBX Classes
90
0
280
0
281
0
0
CLASS
1
ACDBPLACEHOLDER
2
AcDbPlaceHolder
3
ObjectDBX Classes
90
0
280
0
281
0
0
ENDSEC
0
SECTION
2
TABLES
0
TABLE
2
VPORT
5
5
330
0
100
AcDbSymbolTable
70
0
0
ENDTAB
0
TABLE
2
LTYPE
5
6
330
0
100
AcDbSymbolTable
70
4
0
LTYPE
5
10
330
6
100
AcDbSymbolTableRecord
100
AcDbLinetypeTableRecord
2
ByBlock
70
0
3

72
65
73
0
40
0
0
LTYPE
5
11
330
6
100
AcDbSymbolTableRecord
100
AcDbLinetypeTableRecord
2
ByLayer
70
0
3

72
65
73
0
40
0
0
LTYPE
5
12
330
6
100
AcDbSymbolTableRecord
100
AcDbLinetypeTableRecord
2
Continuous
70
0
3
Solid line
72
65
73
0
40
0
0
LTYPE
5
13
330
6
100
AcDbSymbolTableRecord
100
AcDbLinetypeTableRecord
2
DASHED
70
0
3
Dashed __ __ __ __ __ __ __ __
72
65
73
2
40
0.3
49
0.2
74
0
49
-0.1
74
0
0
ENDTAB
0
TABLE
2
LAYER
5
7
330
0
100
AcDbSymbolTable
70
2
0
LAYER
5
14
330
7
100
AcDbSymbolTableRecord
100
AcDbLayerTableRecord
2
0
70
0
62
7
6
Continuous
370
-3
390
4
0
LAYER
5
15
330
7
100
AcDbSymbolTableRecord
100
AcDbLayerTableRecord
2
Floor -0.56m_Rooms
70
0
62
190
6
Continuous
370
-3
390
4
0
ENDTAB
0
TABLE
2
STYLE
5
8
330
0
100
AcDbSymbolTable
70
0
0
ENDTAB
0
TABLE
2
VIEW
5
9
330
0
100
AcDbSymbolTable
70
0
0
ENDTAB
0
TABLE
2
UCS
5
A
330
0
100
AcDbSymbolTable
70
0
0
ENDTAB
0
TABLE
2
APPID
5
B
330
0
100
AcDbSymbolTable
70
1
0
APPID
5
16
330
B
100
AcDbSymbolTableRecord
100
AcDbRegAppTableRecord
2
ACAD
70
0
0
ENDTAB
0
TABLE
2
DIMSTYLE
5
C
330
0
100
AcDbSymbolTable
70
0
100
AcDbDimStyleTable
0
ENDTAB
0
TABLE
2
BLOCK_RECORD
5
D
330
0
100
AcDbSymbolTable
70
2
0
BLOCK_RECORD
5
E
330
D
100
AcDbSymbolTableRecord
100
AcDbBlockTableRecord
2
*MODEL_SPACE
0
BLOCK_RECORD
5
F
330
D
100
AcDbSymbolTableRecord
100
AcDbBlockTableRecord
2
*PAPER_SPACE
0
ENDTAB
0
ENDSEC
0
SECTION
2
BLOCKS
0
BLOCK
5
17
330
E
100
AcDbEntity
8
0
100
AcDbBlockBegin
2
*MODEL_SPACE
70
0
10
0
20
0
30
0
3
*MODEL_SPACE
1

0
ENDBLK
5
18
330
E
100
AcDbEntity
8
0
100
AcDbBlockEnd
0
BLOCK
5
19
330
F
100
AcDbEntity
8
0
100
AcDbBlockBegin
2
*PAPER_SPACE
70
0
10
0
20
0
30
0
3
*PAPER_SPACE
1

0
ENDBLK
5
1A
330
F
100
AcDbEntity
8
0
100
AcDbBlockEnd
0
ENDSEC
0
SECTION
2
ENTITIES
0
POLYLINE
5
1B
330
E
100
AcDbEntity
8
Floor -0.56m_Rooms
6
Continuous
62
190
100
AcDb3dPolyline
66
1
10
0
20
0
30
0
70
9
0
VERTEX
5
1C
330
1B
100
AcDbEntity
8
Floor -0.56m_Rooms
100
AcDbVertex
100
AcDb3dPolylineVertex
10
0.8562380349794427
20
0.6924894281005995
30
-0.5587918466650765
70
32
0
VERTEX
5
1D
330
1B
100
AcDbEntity
8
Floor -0.56m_Rooms
100
AcDbVertex
100
AcDb3dPolylineVertex
10
1.429951266512598
20
1.034050223357386
30
-0.5587918466650765
70
32
0
VERTEX
5
1E
330
1B
100
AcDbEntity
8
Floor -0.56m_Rooms
100
AcDbVertex
100
AcDb3dPolylineVertex
10
0.7464226494330399
20
1.4339061459716802
30
-0.5587918466650765
70
32
0
VERTEX
5
1F
330
1B
100
AcDbEntity
8
Floor -0.56m_Rooms
100
AcDbVertex
100
AcDb3dPolylineVertex
10
0.9438232158053472
20
1.8192235578291294
30
-0.5587918466650765
70
32
0
VERTEX
5
20
330
1B
100
AcDbEntity
8
Floor -0.56m_Rooms
100
AcDbVertex
100
AcDb3dPolylineVertex
10
1.8154618623124144
20
1.923418760001799
30
-0.5587918466650765
70
32
0
VERTEX
5
21
330
1B
100
AcDbEntity
8
Floor -0.56m_Rooms
100
AcDbVertex
100
AcDb3dPolylineVertex
10
1.8814094942988575
20
2.2144980845874693
30
-0.5587918466650765
70
32
0
VERTEX
5
22
330
1B
100
AcDbEntity
8
Floor -0.56m_Rooms
100
AcDbVertex
100
AcDb3dPolylineVertex
10
2.049966292352453
20
1.8513422540120688
30
-0.5587918466650765
70
32
0
VERTEX
5
23
330
1B
100
AcDbEntity
8
Floor -0.56m_Rooms
100
AcDbVertex
100
AcDb3dPolylineVertex
10
2.4364664035991628
20
2.237402088682283
30
-0.5587918466650765
70
32
0
VERTEX
5
24
330
1B
100
AcDbEntity
8
Floor -0.56m_Rooms
100
AcDbVertex
100
AcDb3dPolylineVertex
10
3.9657374084378603
20
2.497269899555903
30
-0.5587918466650765
70
32
0
VERTEX
5
25
330
1B
100
AcDbEntity
8
Floor -0.56m_Rooms
100
AcDbVertex
100
AcDb3dPolylineVertex
10
3.9565416753990856
20
1.6056014208315668
30
-0.5587918466650765
70
32
0
VERTEX
5
26
330
1B
100
AcDbEntity
8
Floor -0.56m_Rooms
100
AcDbVertex
100
AcDb3dPolylineVertex
10
4.470999232035051
20
1.821014916660334
30
-0.5587918466650765
70
32
0
VERTEX
5
27
330
1B
100
AcDbEntity
8
Floor -0.56m_Rooms
100
AcDbVertex
100
AcDb3dPolylineVertex
10
4.5559736212340365
20
1.6218329192781098
30
-0.5587918466650765
70
32
0
VERTEX
5
28
330
1B
100
AcDbEntity
8
Floor -0.56m_Rooms
100
AcDbVertex
100
AcDb3dPolylineVertex
10
4.626441125147167
20
1.1906628184083377
30
-0.5587918466650765
70
32
0
VERTEX
5
29
330
1B
100
AcDbEntity
8
Floor -0.56m_Rooms
100
AcDbVertex
100
AcDb3dPolylineVertex
10
4.435036021016234
20
1.1412136133437427
30
-0.5587918466650765
70
32
0
VERTEX
5
2A
330
1B
100
AcDbEntity
8
Floor -0.56m_Rooms
100
AcDbVertex
100
AcDb3dPolylineVertex
10
4.288359217796877
20
0.6823780968134843
30
-0.5587918466650765
70
32
0
VERTEX
5
2B
330
1B
100
AcDbEntity
8
Floor -0.56m_Rooms
100
AcDbVertex
100
AcDb3dPolylineVertex
10
4.916995107120144
20
0.8462373578625313
30
-0.5587918466650765
70
32
0
VERTEX
5
2C
330
1B
100
AcDbEntity
8
Floor -0.56m_Rooms
100
AcDbVertex
100
AcDb3dPolylineVertex
10
5.144000353184228
20
0.40903389982894245
30
-0.5587918466650765
70
32
0
VERTEX
5
2D
330
1B
100
AcDbEntity
8
Floor -0.56m_Rooms
100
AcDbVertex
100
AcDb3dPolylineVertex
10
4.843588337104292
20
0.3440903732599385
30
-0.5587918466650765
70
32
0
VERTEX
5
2E
330
1B
100
AcDbEntity
8
Floor -0.56m_Rooms
100
AcDbVertex
100
AcDb3dPolylineVertex
10
4.821671792188258
20
0.014243267740488452
30
-0.5587918466650765
70
32
0
VERTEX
5
2F
330
1B
100
AcDbEntity
8
Floor -0.56m_Rooms
100
AcDbVertex
100
AcDb3dPolylineVertex
10
4.297515025320596
20
-0.018885396178097924
30
-0.5587918466650765
70
32
0
VERTEX
5
30
330
1B
100
AcDbEntity
8
Floor -0.56m_Rooms
100
AcDbVertex
100
AcDb3dPolylineVertex
10
4.297965616715459
20
-0.14166761408243045
30
-0.5587918466650765
70
32
0
VERTEX
5
31
330
1B
100
AcDbEntity
8
Floor -0.56m_Rooms
100
AcDbVertex
100
AcDb3dPolylineVertex
10
4.276821831134052
20
-0.6497499616475524
30
-0.5587918466650765
70
32
0
VERTEX
5
32
330
1B
100
AcDbEntity
8
Floor -0.56m_Rooms
100
AcDbVertex
100
AcDb3dPolylineVertex
10
3.342949874674055
20
-0.7812520269104877
30
-0.5587918466650765
70
32
0
VERTEX
5
33
330
1B
100
AcDbEntity
8
Floor -0.56m_Rooms
100
AcDbVertex
100
AcDb3dPolylineVertex
10
0.8351932141998439
20
-0.40459379182436606
30
-0.5587918466650765
70
32
0
SEQEND
5
34
330
1B
100
AcDbEntity
8
Floor -0.56m_Rooms
0
ENDSEC
0
SECTION
2
OBJECTS
0
DICTIONARY
5
1
330
0
100
AcDbDictionary
281
1
3
ACAD_GROUP
350
2
3
ACAD_PLOTSTYLENAME
350
3
0
DICTIONARY
5
2
330
1
100
AcDbDictionary
281
1
0
ACDBDICTIONARYWDFLT
5
3
330
1
100
AcDbDictionary
281
1
3
Normal
350
4
100
AcDbDictionaryWithDefault
340
4
0
ACDBPLACEHOLDER
5
4
330
3
0
ENDSEC
0
EOF